<svg width="30" height="30" viewBox="0 0 30 30" fill="none" xmlns="http://www.w3.org/2000/svg">
<circle cx="15" cy="15" r="15" fill="#2676C2" fill-opacity="0.2"/>
<path d="M16.8889 13.2222V19.4444M13.3333 13.2222V19.4444M9.77778 9.66667V20.1556C9.77778 21.1512 9.77778 21.6487 9.97154 22.029C10.142 22.3635 10.4138 22.636 10.7483 22.8064C11.1282 23 11.6258 23 12.6195 23H17.6027C18.5964 23 19.0933 23 19.4732 22.8064C19.8078 22.636 20.0804 22.3635 20.2509 22.029C20.4444 21.6491 20.4444 21.152 20.4444 20.1583V9.66667M9.77778 9.66667H11.5556M9.77778 9.66667H8M11.5556 9.66667H18.6667M11.5556 9.66667C11.5556 8.83833 11.5556 8.42436 11.6909 8.09766C11.8713 7.66205 12.2172 7.31576 12.6528 7.13533C12.9795 7 13.3939 7 14.2222 7H16C16.8283 7 17.2425 7 17.5692 7.13533C18.0048 7.31576 18.3508 7.66205 18.5313 8.09766C18.6666 8.42436 18.6667 8.83833 18.6667 9.66667M18.6667 9.66667H20.4444M20.4444 9.66667H22.2222" stroke="#2676C2" stroke-width="2" stroke-linecap="round" stroke-linejoin="round"/>
</svg>
